<svg width="172" height="173" viewBox="0 0 172 173" fill="none" xmlns="http://www.w3.org/2000/svg">
<path fill-rule="evenodd" clip-rule="evenodd" d="M86 173C133.496 173 172 134.273 172 86.5C172 38.7274 133.496 0 86 0C38.5035 0 0 38.7274 0 86.5C0 102.152 4.13333 116.834 11.362 129.5H11.5C17.543 133.876 26 129.559 26 122.097V33H144V95.48C144 113.704 144 122.816 140.397 129.751C137.361 135.596 132.596 140.361 126.751 143.397C119.816 147 110.704 147 92.48 147H24.535C40.1468 163.044 61.9174 173 86 173Z" fill="#F9C04A"/>
<rect x="44" y="71" width="84" height="15" rx="6" fill="#F9C04A"/>
<rect x="44" y="96" width="63" height="15" rx="6" fill="#F9C04A"/>
<rect x="114" y="96" width="14" height="15" rx="7" fill="#F9C04A"/>
</svg>
